<svg xmlns="http://www.w3.org/2000/svg" fill="#ffffff" viewBox="0 0 490.03 159.22"><g id="Layer_2" data-name="Layer 2"><g id="Layer_1-2" data-name="Layer 1"><path d="M23.14,127.6v28.13a3.48,3.48,0,0,1-3.48,3.49H3.49A3.49,3.49,0,0,1,0,155.73v-88A3.49,3.49,0,0,1,3.49,64.2H19.66a3.49,3.49,0,0,1,3.48,3.49V95.53a3.49,3.49,0,0,0,6.27,2.11L53.77,65.58a3.49,3.49,0,0,1,2.78-1.38H74.82a3.49,3.49,0,0,1,2.73,5.66L46.92,108.6a3.49,3.49,0,0,0,0,4.33l32,40.64a3.49,3.49,0,0,1-2.74,5.65H56.82A3.49,3.49,0,0,1,54,157.84L29.41,125.49A3.49,3.49,0,0,0,23.14,127.6Z"/><path d="M151,142.44H120.52a3.49,3.49,0,0,0-3.31,2.37l-4.08,12a3.48,3.48,0,0,1-3.3,2.37H93.08a3.5,3.5,0,0,1-3.29-4.68l31.86-88a3.48,3.48,0,0,1,3.28-2.31h21.9a3.48,3.48,0,0,1,3.28,2.31l31.86,88a3.49,3.49,0,0,1-3.28,4.68h-17a3.48,3.48,0,0,1-3.3-2.37l-4.08-12A3.49,3.49,0,0,0,151,142.44ZM132.46,99.61,125.64,120a3.5,3.5,0,0,0,3.31,4.6h13.71A3.49,3.49,0,0,0,146,120L139.07,99.6A3.49,3.49,0,0,0,132.46,99.61Z"/><path d="M232.92,64.2c23.28,0,34.92,13.4,34.92,29.92,0,10.84-5.39,21.13-17.39,26.15a3.48,3.48,0,0,0-1.62,5L265.59,154a3.49,3.49,0,0,1-3,5.25h-18a3.5,3.5,0,0,1-3.06-1.81l-17.77-32.25a3.47,3.47,0,0,0-3.06-1.81h0a3.48,3.48,0,0,0-3.48,3.49v28.89a3.49,3.49,0,0,1-3.49,3.49H197.56a3.49,3.49,0,0,1-3.49-3.49v-88a3.49,3.49,0,0,1,3.49-3.49Zm-1.36,19.22H220.7a3.48,3.48,0,0,0-3.48,3.49v16.57A3.48,3.48,0,0,0,220.7,107h10.86c8.67,0,12.73-4.46,12.73-11.91C244.29,88,240.23,83.42,231.56,83.42Z"/><path d="M305.45,67.69V134a3.5,3.5,0,0,0,3.49,3.49h177.6A3.48,3.48,0,0,1,490,141v14.76a3.49,3.49,0,0,1-3.49,3.49H285.8a3.49,3.49,0,0,1-3.49-3.49v-88a3.49,3.49,0,0,1,3.49-3.49H302A3.49,3.49,0,0,1,305.45,67.69Z"/><path d="M397.74,119.46A39.86,39.86,0,1,1,437.6,79.6,39.9,39.9,0,0,1,397.74,119.46Zm0-60.38A20.53,20.53,0,1,0,418.27,79.6,20.54,20.54,0,0,0,397.74,59.08Z"/><path d="M433.41,0h43.13A13.49,13.49,0,0,1,490,13.49v8.23a0,0,0,0,1,0,0H419.91a0,0,0,0,1,0,0V13.49A13.49,13.49,0,0,1,433.41,0Z"/></g></g></svg>